<?xml version="1.0" encoding="UTF-8"?>
<svg id="Invitation" xmlns="http://www.w3.org/2000/svg" viewBox="0 0 183.58 156.46">
  <defs>
    <style>
      .cls-1 {
        fill: #1d1d1b;
      }
    </style>
  </defs>
  <path class="cls-1" d="m19.57,108.18v-2.46l.92-.1,2.71-9.04-.94-.11v-2.46h7.12l3.36,11.62.95.1v2.46h-5.55v-2.46l.76-.08-.27-.97h-4.02l-.27.97.77.08v2.46h-5.54Zm7.56-9.84c-.19-.69-.31-1.53-.44-2.17h-.13c-.11.65-.25,1.47-.44,2.17l-1.01,3.74h3.05l-1.03-3.74Z"/>
  <path class="cls-1" d="m44.49,99.81l-2.77,8.38c-.88,2.65-1.91,4.1-4.54,4.1-1.16,0-2.31-.09-3.06-.27v-2.16c.94.02,1.4.04,2.02.04.8,0,1.13-.34,1.47-1.28l.21-.57-3.09-8.24-1.07-.11v-2.42h3.76l1.59,5.51c.27.94.53,2,.69,2.9h.04c.11-.9.34-1.87.59-2.86l1.45-5.55h3.78v2.42l-1.07.11Z"/>
  <path class="cls-1" d="m55.04,108.19v-.88c-1.15.65-2.38,1.15-3.81,1.15-2.98,0-3.32-2.08-3.32-4.28v-4.39l-.88-.12v-2.4h4.2v6.91c0,1.28.23,1.72,1.3,1.72.63,0,1.45-.23,2.31-.59v-5.52l-.85-.12v-2.4h4.2v8.4l.87.12v2.4h-4.01Z"/>
  <path class="cls-1" d="m68.38,108.19v-6.91c0-1.28-.23-1.72-1.28-1.72-.63,0-1.45.25-2.33.59v5.52l.88.09v2.42h-5.08v-2.42l.88-.09v-5.88l-.88-.09v-2.42h4.01v.89c1.11-.7,2.33-1.16,3.55-1.16,3.28,0,3.59,1.93,3.59,4.27v4.39l.88.09v2.42h-4.22Z"/>
  <path class="cls-1" d="m78.39,108.45c-2.31,0-3.32-.9-3.32-3.34v-5.42l-1.89-.17v-2.25h1.89v-2.63h3.32v2.63h2.44v2.42h-2.42v5.38c0,.88.06,1.07.9,1.07.49,0,.86-.04,1.51-.08v2.1c-.28.08-1.31.29-2.42.29"/>
  <path class="cls-1" d="m88.94,108.19v-.7c-.72.48-1.98.97-3.43.97-2.04,0-3.19-1.03-3.19-3.11v-.44c0-2.9,2.22-3.23,5.31-3.23h1.01v-.59c0-1.32-.29-1.58-2-1.58-.4,0-.76.02-1.18.04l-.19.84h-2.13v-2.73c.61-.21,2.36-.65,4.2-.65,3.39,0,4.65,1.08,4.65,4.08v4.58l.86.09v2.42h-3.89Zm-.17-4.79h-1.11c-1.53,0-2.18.17-2.18,1.39v.44c0,.84.52,1.07,1.24,1.07.86,0,1.7-.3,2.04-.49v-2.41Z"/>
  <path class="cls-1" d="m107.73,108.19v-7.1c0-.99-.02-1.56-1.12-1.56-.51,0-1.22.21-1.83.51.06.34.06.73.06,1.05v7.1h-3.34v-7.1c0-.99-.02-1.56-1.05-1.56-.63,0-1.36.29-1.87.55v5.59l.88.09v2.42h-5.08v-2.42l.88-.09v-5.9l-.88-.07v-2.42h4.01v.88c.9-.73,2.08-1.15,3.28-1.15,1.34,0,2.1.44,2.58,1.18,1.22-.86,2.4-1.18,3.42-1.18,3.01,0,3.41,1.85,3.41,4.01v4.66l.88.09v2.42h-4.22Z"/>
  <path class="cls-1" d="m113.47,108.19v-2.44l.88-.08v-5.88l-.88-.09v-2.42h4.19v8.4l.88.08v2.44h-5.08Zm.8-14.88h3.47v2.52h-3.47v-2.52Z"/>
  <path class="cls-1" d="m123.15,103.64v.15c0,1.39.19,2.14,2.54,2.14,1.11,0,3.01-.07,4.08-.19v2.23c-.86.21-2.38.48-4.23.48-4.01,0-5.69-1.43-5.69-5.17v-.99c0-3.63,1.92-5.29,5.25-5.29,4.06,0,5.19,2.63,5.19,5.51v1.13h-7.14Zm3.89-1.98c0-1.2-.25-2.25-1.94-2.25s-1.93,1.07-1.93,2.25v.15h3.87v-.15Z"/>
  <path class="cls-1" d="m139.67,108.19v-6.91c0-1.28-.23-1.72-1.28-1.72-.63,0-1.45.25-2.32.59v5.52l.88.09v2.42h-5.07v-2.42l.88-.09v-5.88l-.88-.09v-2.42h4.01v.89c1.11-.7,2.33-1.16,3.55-1.16,3.28,0,3.59,1.93,3.59,4.27v4.39l.88.09v2.42h-4.22Z"/>
  <path class="cls-1" d="m149.68,108.45c-2.31,0-3.32-.9-3.32-3.34v-5.42l-1.89-.17v-2.25h1.89v-2.63h3.32v2.63h2.44v2.42h-2.43v5.38c0,.88.06,1.07.9,1.07.49,0,.86-.04,1.51-.08v2.1c-.29.08-1.32.29-2.42.29"/>
  <path class="cls-1" d="m158.76,108.45c-3.3,0-5.21-1.53-5.21-5.13v-1.18c0-3.61,1.91-5.13,5.21-5.13s5.25,1.52,5.25,5.13v1.18c0,3.6-1.91,5.13-5.25,5.13m1.93-6.32c0-1.91-.57-2.56-1.93-2.56s-1.91.65-1.91,2.56v1.18c0,1.91.57,2.56,1.91,2.56s1.93-.65,1.93-2.56v-1.18Z"/>
  <path class="cls-1" d="m58.01,131.08v-.53c-.71.42-1.71.8-2.94.8-2.46,0-3.91-1.4-3.91-4.48v-1.81c0-3.76,1.89-4.73,4.33-4.73.84,0,1.62.1,2.46.27v-2.77l-1.16-.1v-1.41h2.88v13.28l1.03.1v1.39h-2.69Zm-.06-9.06c-.86-.16-1.77-.25-2.34-.25-1.7,0-2.73.48-2.73,3.28v1.81c0,2.08.76,3.02,2.52,3.02.93,0,1.77-.27,2.55-.65v-7.21Z"/>
  <path class="cls-1" d="m63.79,126.46v.21c0,1.82.27,3.19,3.17,3.19,1.17,0,2.67-.13,3.66-.31v1.37c-.73.19-2,.42-3.74.42-3.72,0-4.81-1.66-4.81-5.06v-.8c0-3.3,1.47-5.17,4.44-5.17s4.5,1.85,4.5,5.38v.76h-7.23Zm5.46-1.6c0-1.28-.27-3.05-2.71-3.05s-2.73,1.77-2.73,3.05v.19h5.44v-.19Z"/>
  <path class="cls-1" d="m76.44,131.08v-2.46l.91-.1,2.71-9.05-.94-.11v-2.46h7.12l3.36,11.62.95.1v2.46h-5.56v-2.46l.77-.07-.27-.98h-4.03l-.27.98.76.07v2.46h-5.53Zm7.55-9.85c-.19-.68-.31-1.52-.44-2.17h-.13c-.12.65-.25,1.47-.44,2.17l-1.01,3.74h3.06l-1.03-3.74Z"/>
  <path class="cls-1" d="m99.01,131.08v-.57c-.76.47-1.79.84-3.09.84-2.59,0-4.12-1.58-4.12-5.02v-1.32c0-3.8,1.89-5.11,4.94-5.11.78,0,1.4.06,2.02.15v-1.74l-.97-.08v-2.04h4.3v12.37l.88.1v2.42h-3.95Zm-.23-8.47c-.57-.09-1.22-.15-1.64-.15-1.35,0-2.02.38-2.02,2.56v1.32c0,1.81.5,2.44,1.87,2.44.63,0,1.26-.13,1.79-.36v-5.8Z"/>
  <path class="cls-1" d="m107.55,126.54v.15c0,1.39.19,2.14,2.54,2.14,1.11,0,3.01-.07,4.08-.19v2.23c-.86.21-2.39.48-4.24.48-4.01,0-5.69-1.43-5.69-5.17v-1c0-3.63,1.93-5.29,5.25-5.29,4.07,0,5.19,2.63,5.19,5.51v1.13h-7.14Zm3.89-1.99c0-1.2-.25-2.25-1.95-2.25s-1.93,1.07-1.93,2.25v.16h3.87v-.16Z"/>
  <path class="cls-1" d="m116.9,135.22c-.78,0-1.56-.07-1.87-.15v-2.16h1.07c.84,0,.99-.26.99-1.22v-9.01l-.88-.1v-2.42h4.2v11.53c0,2.69-.99,3.53-3.51,3.53m.12-19.03h3.46v2.52h-3.46v-2.52Z"/>
  <path class="cls-1" d="m125.81,126.54v.15c0,1.39.19,2.14,2.54,2.14,1.11,0,3.01-.07,4.08-.19v2.23c-.86.21-2.39.48-4.24.48-4.01,0-5.69-1.43-5.69-5.17v-1c0-3.63,1.93-5.29,5.25-5.29,4.07,0,5.19,2.63,5.19,5.51v1.13h-7.14Zm3.89-1.99c0-1.2-.25-2.25-1.95-2.25s-1.93,1.07-1.93,2.25v.16h3.87v-.16Z"/>
  <path class="cls-1" d="m104.38,67.65c.17-.88.26-1.77.26-2.66,0-7.36-5.99-13.35-13.35-13.35-5.56,0-10.32,3.41-12.33,8.25,6.15.05,10.47,2.06,14.66,4.02,3.19,1.48,6.46,3,10.75,3.75"/>
  <path class="cls-1" d="m75.95,80.2c-2.27,0-4.27.21-6.01.54l-.33,3.1h19.39s-.08-.03-.11-.05c-4.13-1.92-7.7-3.59-12.93-3.59"/>
  <path class="cls-1" d="m108.1,80.6c-8.35,0-13.66-2.48-18.35-4.66-4.13-1.94-7.7-3.59-12.93-3.59-2.28,0-4.29.21-6.04.54l-.32,2.92c1.66-.24,3.48-.39,5.48-.39,6.26,0,10.65,2.04,14.89,4.03,4.45,2.07,9.06,4.22,16.38,4.22h.01c2.47,0,4.81-.22,6.99-.66l-.37-2.81c-1.84.26-3.76.39-5.74.39h-.01Z"/>
  <path class="cls-1" d="m110.01,72.89c-8.35,0-13.66-2.48-18.35-4.67-4.12-1.93-7.69-3.58-12.93-3.58-2.66,0-5.05.29-7.14.73l-.27,2.59c1.66-.24,3.49-.39,5.5-.39,6.27,0,10.65,2.04,14.89,4.03,4.45,2.07,9.06,4.22,16.39,4.22h.01c1.79,0,3.49-.12,5.12-.34l-.36-2.68c-.92.06-1.87.09-2.86.09"/>
  <path class="cls-1" d="m91.29,47.87c9.44,0,17.11,7.68,17.11,17.11,0,1.05-.1,2.07-.28,3.08.61.04,1.23.06,1.88.06.78,0,1.52-.02,2.24-.06l-4.73-38.97v-7.85h-8.11v7.85h-4.69v-6.49h-6.43v6.49h-5.09v-7.85h-8.11v8.01l-2.97,31.17c.9-.15,1.82-.28,2.8-.37,2.11-7.04,8.66-12.18,16.37-12.18"/>
</svg>