<?xml version="1.0" encoding="UTF-8"?>
<svg id="Invitation" xmlns="http://www.w3.org/2000/svg" viewBox="0 0 159.18 173.09">
  <defs>
    <style>
      .cls-1 {
        fill-rule: evenodd;
      }
    </style>
  </defs>
  <path class="cls-1" d="m77.18,74.35h4.79v-14.97h-4.79v14.97Zm-10.93-10.5l4.83,12.46,4.51-1.64-4.83-12.46-4.51,1.64Zm22.57-1.64l-4.83,12.46,4.51,1.64,4.83-12.46-4.51-1.64Z"/>
  <path d="m30.3,72.6h1.88c-.47-.72-.81-1.42-1.04-2.11-.23-.7-.34-1.38-.34-2.06,0-1.32.43-2.42,1.27-3.29.85-.87,1.9-1.31,3.16-1.31s2.34.44,3.19,1.33c.85.89,1.27,2.01,1.27,3.37,0,1.55-.81,2.03-1.44,2.02h-1.33v1.93h4.29v-1.93h-.2s.01-.05.02-.07c.15-.64.22-1.29.22-1.95,0-.94-.15-1.79-.44-2.56-.29-.77-.73-1.47-1.32-2.09-.55-.58-1.19-1.03-1.93-1.35-.74-.32-1.49-.47-2.28-.47-1.03,0-1.99.24-2.87.72-.88.48-1.6,1.16-2.17,2.02-.34.54-.6,1.11-.78,1.72-.17.6-.26,1.24-.26,1.91s.09,1.4.28,2.11c.19.71.46,1.4.81,2.08Zm89.29,10.13h3.61v1.37h1.46v-1.37h5.16s0-1.64,0-1.64h-5.13v-5.21h-1.51v5.21h-3.53v-5.36h-1.48v8.37h1.42v-1.37Zm-1.14,30.33l-1.29-.73-2,3.48,1.29.73.61-1.06,6.64,3.7-11.64,2.3-.71,1.27,10.18,5.67.8-1.44-7.91-4.41,11.63-2.27.72-1.29-8.9-4.96.57-.99Zm-38.65,15.92c28.5,0,30.08-26.15,30.08-26.15v-55.65h-60.15v55.65s1.57,26.15,30.08,26.15Zm-22.23-28.33v-45.91h44.46v45.91s.05,3.3-1.02,4.07c-6.73-3.59-11.42-16.43-10.9-23.83h-8.26c.18,11.38,4.71,21.7,15.93,32.25-4.49,5.27-10.64,7.91-17.99,8.14-7.35-.23-13.5-2.87-17.99-8.14,11.23-10.56,15.75-20.87,15.93-32.25h-8.26c.52,7.4-4.17,20.23-10.9,23.83-1.07-.76-1.02-4.07-1.02-4.07Zm22.23-62.91c10.02-.15,22.23,4.21,22.23,4.21l5.08-13.51-7.41-1.89-1.74,6.1-6.83-1.89.58-6.25-7.7-.44-.15,5.96h-8.14l-.15-5.96-7.7.44.58,6.25-6.83,1.89-1.74-6.1-7.41,1.89,5.09,13.51s12.2-4.36,22.23-4.21Zm48.68,65.51l-.55,5.51-3.61-.36.52-5.18-1.5-.15-.52,5.18-3.52-.35.54-5.33-1.48-.15-.85,8.46,1.53.15.13-1.49,3.48.35-.14,1.4,1.49.15.14-1.4,5.11.52.72-7.14-1.49-.15Zm-3.47-6.84c.26-.37.84-.85,1.76-1.45l3.06-2v-2.01l-4.26,2.83c-.41.27-.71.49-.88.67-.17.17-.31.36-.42.55-.23-.76-.58-1.31-1.05-1.66-.47-.35-1.08-.53-1.85-.53-1.02,0-1.8.32-2.36.96-.56.64-.83,1.55-.83,2.73v4.75h1.41v-1.34s3.64-.01,3.64-.01v1.35h1.36v-1.35h5.24s0-1.67,0-1.67h-5.21v-.5c0-.51.13-.95.38-1.32Zm-1.78,1.82h-3.63v-1.38c0-.82.14-1.41.43-1.77.29-.37.75-.55,1.38-.55s1.07.19,1.37.58c.3.39.45.97.45,1.75v1.38Zm-3.64-27.98h3.61v1.37h1.46v-1.37h5.16s0-7.18,0-7.18h-1.5v5.53h-3.63v-5.21h-1.51v5.21h-3.53v-5.36h-1.48v8.37h1.42v-1.37Zm10.3,17.74h-5.23v-.93h-1.43v.93h-4.99v1.67h4.99v.93h1.43v-.93h5.23v-1.67Zm-97.3,11.85c.75,0,1.4-.23,1.93-.69.53-.46.89-1.12,1.09-1.97.22.58.53,1.01.93,1.3.4.28.9.42,1.5.42.97,0,1.72-.32,2.25-.95.53-.63.79-1.53.79-2.69v-4.43h-1.52v1.02h-3.54v-1.02h-1.49v1.02h-5.11v4.04c0,1.21.29,2.17.86,2.88.58.71,1.35,1.06,2.31,1.06Zm3.48-6.33h3.5v1.59c0,.71-.13,1.23-.39,1.55-.26.33-.68.49-1.25.49-.63,0-1.09-.2-1.4-.62-.3-.41-.46-1.04-.46-1.89v-1.12Zm-5.14,0h3.61v1.95c0,.9-.15,1.56-.44,1.98-.3.42-.76.63-1.39.63s-1.06-.19-1.35-.56c-.29-.37-.43-.97-.43-1.78v-2.22Zm43.9,44.74c-.46-.43-.98-.77-1.56-1.03-.59-.25-1.31-.45-2.16-.58l-4.96-.81-.3,1.64.77.1-.47,2.93-1.09-.15-.24,1.65,1.07.15-.85,5.34,4.23.67c.84.13,1.59.17,2.23.11.65-.06,1.25-.23,1.8-.49.86-.4,1.56-.98,2.12-1.74.56-.76.92-1.64,1.08-2.63.16-.99.09-1.94-.21-2.83-.29-.89-.79-1.67-1.48-2.32Zm-.07,4.88c-.2,1.3-.77,2.25-1.7,2.87-.93.62-2.11.81-3.53.59l-2.6-.41.6-3.8,1.28.18.24-1.65-1.25-.18.46-2.93,2.6.41c1.42.22,2.48.78,3.17,1.65.69.88.94,1.97.73,3.27Zm-39.9-35.84l1.65-.23-.16-1.14,4.94-.7-.23-1.65-4.94.7-.17-1.19-1.65.23.17,1.19-4.95.69.23,1.65,4.95-.7.16,1.14Zm78.75,27.74l-2.55-2.58,3.71-3.66-1.06-1.07-3.71,3.66-2.48-2.52,3.81-3.76-1.04-1.05-6.05,5.97,1.08,1.09,1.05-1.06,2.46,2.49-1,.99,1.05,1.06,1-.99,3.61,3.66,5.11-5.04-1.05-1.07-3.94,3.88Zm-65.76-7.64c.45-.82.68-1.71.68-2.66,0-.63-.1-1.24-.32-1.84-.22-.6-.56-1.26-1.04-1.98l-2.78-4.18-1.4.9.45.63-2.46,1.66-.63-.9-1.37.95.62.88-4.48,3.02,2.39,3.55c.48.71.96,1.28,1.44,1.71.49.43,1.01.76,1.59.98.88.36,1.78.48,2.72.36.94-.11,1.83-.45,2.66-1.01.83-.56,1.48-1.25,1.93-2.08Zm-1.04-2.15c-.17,1.11-.8,2.03-1.89,2.76-1.09.73-2.17.97-3.26.71-1.09-.26-2.03-.99-2.83-2.18l-1.47-2.18,3.19-2.15.74,1.06,1.37-.95-.72-1.04,2.46-1.66,1.47,2.18c.8,1.19,1.12,2.34.95,3.45Zm-10.4-12.86l.37,1.14,1.58-.51-.39-1.2,4.45-1.62-.56-1.55-4.4,1.6-.34-1.06-1.59.51.36,1.11-4.99,1.81,2.46,6.76,1.41-.51-1.9-5.21,3.53-1.28Zm21.51,19.8c-.44-.69-.99-1.28-1.68-1.78-.67-.49-1.4-.83-2.18-1.03-.78-.2-1.58-.24-2.4-.13-.8.11-1.55.37-2.23.78-.24.14-.47.3-.69.48l-.87-.86-1.17,1.18.92.9c-.44.63-.74,1.31-.9,2.03-.18.77-.2,1.57-.06,2.4.14.79.42,1.54.86,2.23.43.69.99,1.28,1.66,1.77.69.5,1.42.85,2.2,1.05.78.2,1.58.24,2.41.13.79-.11,1.53-.37,2.22-.77.68-.41,1.26-.93,1.72-1.57.5-.68.83-1.41,1.01-2.17.18-.76.2-1.56.05-2.39-.14-.8-.42-1.54-.85-2.23Zm-.89,4.15c-.13.56-.37,1.08-.72,1.56-.35.48-.78.87-1.27,1.18-.5.3-1.04.5-1.62.59-.59.1-1.17.08-1.74-.06-.56-.14-1.09-.39-1.58-.75-.48-.35-.88-.78-1.19-1.28-.31-.5-.51-1.04-.59-1.62-.09-.58-.07-1.16.07-1.72.11-.44.28-.85.51-1.24l.66.65,1.17-1.18-.72-.72c.12-.1.26-.19.39-.27.5-.31,1.04-.51,1.61-.59.6-.09,1.18-.06,1.76.07.58.14,1.09.37,1.56.71.48.35.88.78,1.18,1.28.3.5.5,1.05.58,1.63.09.61.07,1.2-.06,1.76Zm-15.9-52.28v-4.28h-1.46v.89l-3.66-1.59v-2.23h-1.46v1.59l-5.13-2.22v1.71l5.11,2.18v3.51l-5.11,2.25v1.73l5.13-2.25v1.63h1.46v-2.27l3.66-1.61v.95h1.46Zm-5.12-1.09v-2.22l2.56,1.1-2.56,1.12Zm67.52,49.77l-.62-1.38-9.35,4.16,1.05,2.36,1.51-.67-.43-.97,2.41-1.07,4.12,9.26,1.51-.67-4.12-9.26,3.91-1.74Zm-20.96,14.62l-.32-3.62,5.19-.45-.13-1.5-5.19.46-.31-3.52,5.34-.47-.13-1.48-8.47.75.14,1.53,1.48-.15.3,3.48-1.4.12.13,1.49,1.4-.12.45,5.12,7.15-.62-.13-1.49-5.51.48Z"/>
</svg>