<svg width="28" height="27" viewBox="0 0 28 27" fill="none" xmlns="http://www.w3.org/2000/svg">
<path d="M26.2761 1.00341C25.6072 0.334369 24.8057 0 23.8719 0H4.11817C3.18407 0 2.38278 0.33449 1.71374 1.00341C1.04482 1.67215 0.710449 2.47356 0.710449 3.40748V23.161C0.710449 24.0948 1.04476 24.8964 1.71374 25.5652C2.38278 26.2341 3.18426 26.5687 4.11817 26.5687H23.8717C24.8053 26.5687 25.6071 26.2341 26.2759 25.5652C26.945 24.8964 27.279 24.0948 27.279 23.161V3.40748C27.279 2.47338 26.945 1.67239 26.2761 1.00341ZM10.2502 9.57394C11.2937 8.56508 12.5478 8.06041 14.0124 8.06041C15.4882 8.06041 16.748 8.56508 17.7917 9.57394C18.8355 10.583 19.3571 11.8026 19.3571 13.2324C19.3571 14.6621 18.8355 15.8817 17.7917 16.8905C16.748 17.8998 15.4886 18.4044 14.0124 18.4044C12.5479 18.4044 11.2939 17.8994 10.2502 16.8905C9.20646 15.8816 8.68464 14.6621 8.68464 13.2324C8.68464 11.8026 9.20646 10.583 10.2502 9.57394ZM24.2698 22.4521C24.2698 22.7517 24.1657 23.0024 23.9583 23.2044C23.7503 23.4061 23.5028 23.507 23.2142 23.507H4.72366C4.42388 23.507 4.17288 23.4061 3.97125 23.2044C3.76932 23.0028 3.66845 22.7517 3.66845 22.4521V11.2431H6.1073C5.87677 11.9697 5.76148 12.7251 5.76148 13.5091C5.76148 15.7236 6.56859 17.6116 8.183 19.1744C9.79759 20.7367 11.7406 21.5182 14.0123 21.5182C15.5114 21.5182 16.8951 21.1605 18.164 20.4456C19.4325 19.7303 20.4351 18.759 21.1736 17.5308C21.9117 16.3026 22.2808 14.9619 22.2808 13.5091C22.2808 12.7251 22.165 11.9699 21.9345 11.2431H24.2699V22.4522H24.2698V22.4521ZM24.2698 7.0052C24.2698 7.33963 24.1545 7.6222 23.9235 7.85278C23.6929 8.08355 23.4106 8.19878 23.0759 8.19878H20.0663C19.7321 8.19878 19.4493 8.08349 19.2187 7.85278C18.9882 7.6222 18.8729 7.33963 18.8729 7.0052V4.1514C18.8729 3.82849 18.9882 3.54889 19.2187 3.31242C19.4493 3.07608 19.7321 2.95776 20.0663 2.95776H23.0759C23.4106 2.95776 23.693 3.07602 23.9235 3.31242C24.1544 3.54889 24.2698 3.82849 24.2698 4.1514V7.0052Z" fill="#ffffff"/>
</svg>
