<?xml version="1.0" encoding="UTF-8"?>
<svg id="Invitation" xmlns="http://www.w3.org/2000/svg" viewBox="0 0 183.58 156.46">
  <defs>
    <style>
      .cls-1 {
        fill: #010101;
      }
    </style>
  </defs>
  <polygon class="cls-1" points="52.98 47.61 33.99 47.61 33.99 57.06 33.99 57.07 33.99 85.59 43.46 85.59 43.46 57.07 52.98 57.07 52.98 47.61"/>
  <rect class="cls-1" x="62.38" y="47.61" width="9.46" height="9.46"/>
  <polygon class="cls-1" points="52.99 61.87 52.99 71.33 62.32 71.33 62.32 90.39 71.91 90.39 71.91 61.87 52.99 61.87"/>
  <rect class="cls-1" x="19.74" y="47.6" width="9.46" height="9.46"/>
  <polygon class="cls-1" points="92.04 68.01 89.6 68.01 89.6 74.34 88.13 74.34 88.13 68.01 85.69 68.01 85.69 66.71 92.04 66.71 92.04 68.01"/>
  <path class="cls-1" d="m117.66,66.5h1.44v1.43h-1.44v-1.43Zm0,2.21h1.44v5.63h-1.44v-5.63Z"/>
  <polygon class="cls-1" points="99.73 85.89 97.65 80.26 99.14 80.26 100.57 84.72 102.01 80.26 103.36 80.26 101.29 85.89 99.73 85.89"/>
  <path class="cls-1" d="m62.32,90.03c0,5.21-4.22,9.43-9.43,9.43s-9.43-4.22-9.43-9.43c0-.03,0-.07,0-.1h-9.4c0,10.45,8.47,18.93,18.93,18.93s18.93-8.47,18.93-18.93h-9.59s0,.06,0,.1"/>
  <path class="cls-1" d="m94.92,74.44c-.45,0-.86-.08-1.22-.23-.37-.15-.68-.36-.93-.63-.26-.26-.46-.57-.6-.92-.14-.35-.21-.72-.21-1.11s.07-.78.2-1.13c.14-.35.33-.67.59-.93.26-.27.57-.48.94-.64.37-.16.78-.24,1.24-.24s.87.08,1.23.24c.36.16.67.37.92.63.25.27.45.57.58.92s.2.72.2,1.1c0,.09,0,.18,0,.27,0,.09-.01.16-.03.21h-4.35c.02.22.08.42.16.59.09.17.2.32.33.44.13.12.29.22.46.28.17.07.35.1.54.1.29,0,.56-.07.81-.21.25-.14.43-.32.52-.55l1.24.34c-.21.43-.54.78-.99,1.06-.46.27-1,.41-1.63.41m1.46-3.4c-.04-.42-.19-.76-.47-1.01-.28-.25-.61-.38-1-.38-.19,0-.37.03-.54.1-.17.07-.32.16-.45.28-.13.12-.23.27-.32.44-.08.17-.13.36-.15.57h2.92Z"/>
  <path class="cls-1" d="m104.48,74.33h-1.44v-3.16c0-.45-.08-.78-.24-.99-.16-.21-.38-.31-.66-.31-.14,0-.29.03-.44.09-.15.06-.29.14-.42.24-.13.1-.25.23-.36.37-.11.14-.19.3-.24.47v3.29h-1.44v-5.63h1.3v1.04c.21-.36.51-.64.9-.84s.84-.3,1.33-.3c.35,0,.64.06.86.19.22.13.39.3.52.51.12.21.21.44.25.71.05.26.07.53.07.8v3.51Z"/>
  <path class="cls-1" d="m108.85,74.44c-.45,0-.86-.08-1.22-.23-.36-.15-.68-.36-.93-.63-.26-.26-.46-.57-.6-.92-.14-.35-.21-.72-.21-1.11s.07-.78.2-1.13c.13-.35.33-.67.59-.93.26-.27.57-.48.94-.64.37-.16.78-.24,1.24-.24s.87.08,1.23.24c.36.16.67.37.92.63.25.27.45.57.58.92.13.35.2.72.2,1.1,0,.09,0,.18,0,.27,0,.09-.01.16-.03.21h-4.35c.02.22.08.42.16.59.09.17.2.32.33.44.14.12.29.22.46.28.17.07.35.1.54.1.29,0,.56-.07.81-.21.25-.14.43-.32.52-.55l1.24.34c-.21.43-.54.78-.99,1.06-.46.27-1,.41-1.63.41m1.46-3.4c-.04-.42-.19-.76-.47-1.01-.28-.25-.61-.38-1-.38-.19,0-.37.03-.54.1-.17.07-.32.16-.45.28-.13.12-.23.27-.32.44-.08.17-.13.36-.15.57h2.92Z"/>
  <path class="cls-1" d="m116.53,69.95c-.44,0-.83.09-1.17.25-.34.16-.59.4-.74.73v3.4h-1.44v-5.63h1.32v1.2c.1-.19.22-.37.35-.52.14-.15.28-.29.44-.4.16-.11.32-.2.48-.26s.32-.09.47-.09h.18s.08,0,.11.01v1.31Z"/>
  <path class="cls-1" d="m121.66,74.57v-4.23h-.74v-1.1h.74v-.34c0-.7.17-1.26.5-1.66.34-.41.8-.61,1.37-.61.46,0,.92.11,1.39.33l-.29,1.08c-.11-.06-.23-.11-.38-.14-.15-.04-.28-.06-.4-.06-.5,0-.75.34-.75,1.01v.4h1.38v1.1h-1.38v4.23h-1.44Z"/>
  <path class="cls-1" d="m128.12,74.68c-.45,0-.86-.08-1.22-.23-.37-.15-.68-.36-.93-.63s-.46-.57-.6-.92c-.14-.35-.21-.72-.21-1.11s.07-.78.2-1.13c.14-.35.33-.67.59-.93.26-.27.57-.48.94-.64.37-.16.78-.24,1.24-.24s.87.08,1.23.24c.36.16.67.37.92.63.25.27.45.57.58.92s.2.72.2,1.1c0,.09,0,.18,0,.27,0,.09-.01.16-.03.21h-4.35c.02.22.08.42.16.59.09.17.2.32.33.44.13.12.29.22.46.28.17.07.35.1.54.1.29,0,.56-.07.81-.21.25-.14.43-.32.52-.55l1.24.34c-.21.43-.54.78-.99,1.06-.46.27-1,.41-1.63.41m1.46-3.4c-.04-.42-.19-.76-.47-1.01-.28-.25-.61-.38-1-.38-.19,0-.37.03-.54.1-.17.07-.32.16-.45.28-.13.12-.23.27-.32.44s-.13.36-.15.57h2.92Z"/>
  <path class="cls-1" d="m88.05,88.23c-.27,0-.53-.04-.77-.12-.24-.08-.46-.21-.66-.38l.62-.98c.08.08.18.14.29.18.12.04.23.06.34.06.19,0,.35-.07.48-.2.14-.13.2-.3.2-.51v-5.78h1.44v5.67c0,.3-.05.58-.15.83-.1.25-.24.47-.41.66-.18.18-.38.32-.62.42-.24.1-.5.15-.77.15m.52-9.95h1.44v1.43h-1.44v-1.43Z"/>
  <path class="cls-1" d="m94.42,86.23c-.46,0-.87-.08-1.24-.24-.37-.16-.67-.37-.93-.64-.25-.27-.45-.58-.59-.93-.14-.35-.2-.72-.2-1.11s.07-.77.2-1.12c.14-.35.33-.66.59-.93.25-.27.56-.48.93-.64.37-.16.78-.24,1.24-.24s.87.08,1.23.24c.36.16.67.37.92.64.25.27.45.58.59.93.14.35.2.72.2,1.12s-.07.76-.2,1.11c-.14.35-.33.66-.58.93-.25.27-.56.48-.92.64-.37.16-.78.24-1.24.24m-1.47-2.91c0,.25.04.48.11.68.08.2.18.38.31.53.13.15.29.27.47.35.18.08.37.12.58.12s.4-.04.58-.12c.18-.08.33-.2.47-.35.13-.15.24-.33.31-.54.08-.21.11-.44.11-.69s-.04-.47-.11-.68c-.08-.21-.18-.39-.31-.54-.13-.15-.29-.27-.47-.35-.18-.08-.37-.12-.58-.12s-.4.04-.58.13c-.18.09-.34.2-.47.35-.13.15-.24.33-.31.54-.08.21-.11.43-.11.68"/>
  <path class="cls-1" d="m107.01,85.99c-.45,0-.86-.08-1.23-.23-.36-.15-.68-.36-.93-.63s-.46-.57-.6-.92c-.14-.35-.21-.72-.21-1.11s.07-.78.2-1.13c.14-.35.33-.67.59-.93.26-.27.57-.48.94-.64.37-.16.78-.24,1.24-.24s.87.08,1.23.24c.36.16.67.37.92.63.25.27.45.57.58.92.13.35.2.72.2,1.1,0,.09,0,.18,0,.27,0,.09-.01.16-.03.21h-4.35c.02.22.08.42.16.59.09.17.2.32.33.44.13.12.29.22.46.28.17.07.35.1.54.1.29,0,.56-.07.81-.21.25-.14.43-.32.52-.55l1.24.34c-.21.43-.54.78-.99,1.06-.46.27-1,.41-1.63.41m1.46-3.4c-.04-.42-.19-.76-.47-1.01-.28-.25-.61-.38-1-.38-.19,0-.37.03-.54.1-.17.07-.32.16-.45.28-.13.12-.23.27-.32.44-.08.17-.13.36-.15.57h2.92Z"/>
  <path class="cls-1" d="m116.57,85.89h-1.44v-3.16c0-.45-.08-.78-.24-.99-.16-.21-.38-.31-.66-.31-.14,0-.29.03-.44.09-.15.06-.29.14-.42.24-.13.1-.25.23-.36.37-.11.14-.19.3-.24.47v3.29h-1.44v-5.63h1.3v1.04c.21-.36.51-.64.9-.84.39-.2.84-.3,1.33-.3.35,0,.64.06.86.19.22.13.39.3.52.5.12.21.21.44.25.71.05.27.07.53.07.81v3.51Z"/>
  <path class="cls-1" d="m121.51,86.81c.12.04.24.06.35.08.12.02.21.03.29.03.09,0,.18-.02.26-.05.08-.04.15-.1.22-.19.07-.09.13-.21.19-.37.07-.16.13-.35.2-.59l-2.22-5.63h1.48l1.52,4.38,1.35-4.38h1.35l-2.36,6.75c-.14.39-.37.72-.7.97-.33.25-.74.38-1.22.38-.12,0-.23,0-.35-.03-.12-.02-.24-.05-.37-.09v-1.25Z"/>
  <path class="cls-1" d="m133.21,85.82c-.45,0-.86-.08-1.23-.23-.36-.15-.68-.36-.93-.63s-.46-.57-.6-.92c-.14-.35-.21-.72-.21-1.11s.07-.78.2-1.13c.14-.35.33-.67.59-.93.26-.27.57-.48.94-.64.37-.16.78-.24,1.24-.24s.87.08,1.23.24c.36.16.67.37.92.63.25.27.45.57.58.92.13.35.2.72.2,1.1,0,.09,0,.18,0,.27,0,.09-.01.16-.03.21h-4.35c.02.22.08.42.16.59.09.17.2.32.33.44.13.12.29.22.46.28.17.07.35.1.54.1.29,0,.56-.07.81-.21.25-.14.43-.32.52-.55l1.24.34c-.21.43-.54.78-.99,1.06-.46.27-1,.41-1.63.41m1.46-3.4c-.04-.42-.19-.76-.47-1.01-.28-.25-.61-.38-1-.38-.19,0-.37.03-.54.1-.17.07-.32.16-.45.28-.13.12-.23.27-.32.44-.08.17-.13.36-.15.57h2.92Z"/>
  <path class="cls-1" d="m139.87,85.82c-.39,0-.74-.08-1.07-.22-.33-.15-.61-.36-.85-.62-.24-.26-.42-.57-.55-.93-.13-.35-.2-.74-.2-1.14s.06-.79.19-1.14c.12-.35.3-.66.52-.92.22-.27.49-.47.8-.62.31-.15.64-.22,1.01-.22.42,0,.79.1,1.12.3.33.2.59.46.78.78v-3.2h1.44v6.19c0,.15.03.26.08.32.05.06.14.1.26.11v1.23c-.25.05-.46.08-.61.08-.26,0-.47-.07-.63-.19-.16-.13-.26-.3-.28-.5l-.03-.36c-.21.36-.49.63-.84.81-.35.18-.72.27-1.11.27m.38-1.22c.14,0,.28-.02.42-.07.14-.05.28-.11.4-.2.12-.09.23-.19.33-.3.1-.11.17-.24.22-.38v-1.34c-.06-.16-.14-.3-.24-.44-.1-.13-.22-.25-.36-.34-.13-.1-.27-.17-.42-.23-.15-.06-.29-.09-.43-.09-.22,0-.41.05-.6.14-.18.09-.34.22-.47.38-.13.16-.23.35-.3.55-.07.21-.11.42-.11.65,0,.24.04.45.12.65.08.2.19.38.32.53.14.15.3.27.49.35.19.09.4.13.63.13"/>
  <path class="cls-1" d="m146.69,85.82c-.58,0-1.02-.19-1.32-.56-.3-.37-.45-.92-.45-1.65v-3.52h1.44v3.21c0,.87.31,1.3.94,1.3.28,0,.55-.08.81-.25.26-.17.47-.42.64-.77v-3.49h1.44v3.97c0,.15.03.26.08.32.05.06.14.1.26.11v1.23c-.14.03-.26.05-.36.05-.1,0-.18.01-.26.01-.26,0-.47-.06-.63-.18-.16-.12-.26-.28-.28-.49l-.03-.45c-.25.39-.57.68-.97.87-.39.19-.83.29-1.3.29"/>
  <path class="cls-1" d="m151.76,82.9c0-.39.07-.77.2-1.12.13-.35.33-.66.59-.92.26-.26.57-.48.93-.63.36-.16.78-.24,1.23-.24.62,0,1.14.13,1.57.4.43.26.76.61.97,1.04l-1.41.43c-.12-.21-.28-.37-.48-.48-.2-.11-.42-.17-.67-.17-.21,0-.4.04-.58.12-.18.08-.33.2-.47.34-.13.15-.24.32-.31.53-.07.21-.11.44-.11.69s.04.48.12.69c.08.21.18.39.32.54.13.15.29.27.47.35.18.08.37.12.57.12.26,0,.5-.07.71-.19.22-.13.37-.29.46-.47l1.41.43c-.19.43-.51.78-.96,1.05-.44.27-.98.41-1.6.41-.46,0-.87-.08-1.24-.24-.36-.16-.68-.37-.93-.64-.26-.27-.46-.58-.6-.93-.14-.35-.21-.73-.21-1.11"/>
  <path class="cls-1" d="m160.22,85.82c-.27,0-.53-.04-.76-.13-.24-.09-.44-.22-.61-.38-.17-.16-.31-.35-.4-.56-.1-.22-.15-.45-.15-.71s.06-.51.18-.74c.12-.22.28-.42.49-.57.21-.16.46-.28.76-.37.29-.09.62-.13.97-.13.25,0,.5.02.74.06.24.04.45.1.64.18v-.32c0-.37-.11-.66-.32-.86-.21-.2-.53-.3-.94-.3-.3,0-.59.05-.88.16-.29.11-.58.27-.88.47l-.44-.91c.72-.48,1.5-.72,2.34-.72s1.44.2,1.88.6c.45.4.67.97.67,1.72v1.75c0,.15.03.26.08.32.05.06.14.1.26.11v1.23c-.24.05-.46.08-.63.08-.27,0-.48-.06-.63-.18-.15-.12-.24-.28-.27-.48l-.03-.31c-.25.33-.55.58-.91.75-.36.17-.74.26-1.15.26m.41-1.05c.24,0,.47-.04.69-.13.22-.09.39-.2.51-.34.16-.12.24-.26.24-.41v-.64c-.17-.06-.36-.12-.56-.16-.2-.04-.39-.06-.58-.06-.37,0-.68.08-.91.25-.24.17-.35.38-.35.64,0,.24.09.45.28.61.19.16.42.24.69.24"/>
</svg>