<?xml version="1.0" encoding="UTF-8"?>
<svg id="Invitation" xmlns="http://www.w3.org/2000/svg" viewBox="0 0 176.58 92.48">
  <defs>
    <style>
      .cls-1 {
        font-family: Gotham-Black, 'Gotham Black';
        font-weight: 800;
      }

      .cls-2 {
        stroke: #1d1d1c;
      }

      .cls-2, .cls-3 {
        stroke-miterlimit: 10;
      }

      .cls-4 {
        font-family: Gotham-Book, 'Gotham Book';
      }

      .cls-5 {
        font-size: 5.63px;
      }

      .cls-3 {
        fill: #e52629;
        stroke: #e5292a;
      }
    </style>
  </defs>
  <text class="cls-5" transform="translate(115.92 26.04)"><tspan class="cls-1"><tspan x="0" y="0">THE GALLERY OF</tspan></tspan><tspan class="cls-1"><tspan x="0" y="6.75">MODERN ART</tspan></tspan><tspan class="cls-4"><tspan x="0" y="13.51">ArtGoMA.com</tspan></tspan></text>
  <path class="cls-3" d="m79.35,61.75c-.44-1.1-1.08-2.07-1.88-2.9-.8-.82-1.75-1.49-2.83-1.97-2.19-1-5.02-.99-7.24,0-1.09.49-2.06,1.17-2.87,2.01-.81.84-1.44,1.83-1.89,2.92-.45,1.09-.67,2.27-.67,3.56s.23,2.4.67,3.5c.44,1.1,1.08,2.07,1.88,2.89.8.82,1.75,1.49,2.83,1.97,1.09.5,2.31.75,3.61.75s2.52-.25,3.62-.75c1.09-.49,2.06-1.17,2.87-2.01.81-.84,1.45-1.83,1.89-2.92.44-1.09.67-2.27.67-3.56s-.23-2.4-.67-3.5m-10.41,8.74c-.65-.28-1.22-.68-1.7-1.18-.48-.5-.86-1.1-1.14-1.79-.27-.68-.41-1.43-.41-2.28,0-.77.13-1.5.4-2.18.26-.68.63-1.27,1.1-1.76.46-.49,1.02-.88,1.67-1.18.65-.29,1.34-.43,2.11-.43s1.45.14,2.09.42c.66.29,1.22.68,1.7,1.18.49.51.86,1.1,1.14,1.79.27.68.41,1.43.41,2.22v.06c0,.77-.14,1.5-.4,2.18-.26.68-.63,1.27-1.1,1.76-.46.49-1.02.89-1.67,1.18-1.27.58-2.9.58-4.2.01"/>
  <path class="cls-2" d="m102.37,19.15l-21.61,31.83-21.61-31.83h-3.77v4.57c-.69-.5-1.39-.98-2.1-1.42-1.41-.87-2.9-1.61-4.46-2.23-.56-.22-1.16-.4-1.76-.58-2.83-.96-5.85-1.5-9.01-1.5-15.55,0-28.19,12.65-28.19,28.19s12.65,28.2,28.19,28.2c5.26,0,10.17-1.47,14.39-3.99,1.03-.53,2.02-1.07,2.94-1.65v4.24h3.84v-27.83h-21.75v3.62h17.99v15.4s-.06.04-.09.07c-.96.79-2.05,1.55-3.3,2.27-.45.26-.93.5-1.4.73-3.69,2.22-8.01,3.53-12.63,3.53-13.57,0-24.56-11-24.56-24.56s11-24.56,24.56-24.56c6.48,0,12.37,2.53,16.76,6.64.19.18.39.34.57.52v12.64h3.84v-15.2l21.3,30.99h.31l8.57-12.48h12.72v28.24h4V19.15h-3.77Zm-.23,21.58h-9.97l9.97-14.51v14.51Z"/>
  <rect x="116.07" y="45.07" width="39.25" height="3.39"/>
</svg>