<?xml version="1.0" encoding="UTF-8"?>
<svg id="Invitation" xmlns="http://www.w3.org/2000/svg" viewBox="0 0 183.58 156.46">
  <defs>
    <style>
      .cls-1 {
        fill: #010101;
      }
    </style>
  </defs>
  <polygon class="cls-1" points="78.2 87.51 81.32 87.51 81.32 82.17 84.11 79.22 90.22 87.51 94.03 87.51 86.26 77.01 93.7 69.08 89.84 69.08 81.32 78.35 81.32 69.08 78.2 69.08 78.2 87.51"/>
  <path class="cls-1" d="m94.88,87.51h3.22l1.84-4.45h8.47l1.82,4.45h3.33l-7.88-18.56h-2.92l-7.88,18.56Zm6.22-7.32l3.07-7.37,3.09,7.37h-6.16Z"/>
  <path class="cls-1" d="m60.01,87.44h3.12v-6.42h3.95l4.41,6.42h3.71l-4.84-6.98c.63-.17,1.21-.42,1.73-.75.52-.32.97-.72,1.34-1.18.38-.46.67-1,.88-1.61.21-.61.32-1.29.32-2.04v-.05c0-.81-.13-1.54-.38-2.21-.25-.67-.62-1.26-1.1-1.76-.58-.58-1.31-1.03-2.18-1.36-.87-.32-1.87-.49-2.99-.49h-7.98v18.43Zm3.12-9.29v-6.21h4.59c1.18,0,2.1.26,2.75.78.65.52.97,1.28.97,2.29v.05c0,.95-.33,1.7-1,2.26-.67.55-1.57.83-2.69.83h-4.62Zm-20.26,9.29h13.38v-2.92h-10.26v-4.92h8.98v-2.92h-8.98v-4.74h10.13v-2.92h-13.25v18.43Zm-22.21,0h3.12v-13.16l5.6,8.63h.1l5.66-8.69v13.21h3.12v-18.43h-3.35l-5.45,8.71-5.45-8.71h-3.35v18.43Z"/>
  <path class="cls-1" d="m115.7,87.44h3.12v-6.42h3.95l4.41,6.42h3.71l-4.84-6.98c.63-.18,1.21-.43,1.73-.75.52-.32.97-.72,1.34-1.18.37-.46.67-1,.88-1.61.21-.6.32-1.28.32-2.04v-.05c0-.81-.13-1.54-.38-2.21-.26-.67-.62-1.25-1.1-1.76-.58-.58-1.31-1.03-2.18-1.36-.87-.32-1.87-.49-2.99-.49h-7.98v18.43Zm3.12-9.29v-6.21h4.59c1.18,0,2.09.26,2.74.78.65.52.98,1.28.98,2.29v.05c0,.95-.34,1.71-1,2.26-.67.55-1.57.83-2.69.83h-4.62Z"/>
  <path class="cls-1" d="m149.55,87.51h13.38v-2.92h-10.26v-4.92h8.98v-2.92h-8.98v-4.74h10.13v-2.92h-13.25v18.43Zm-12.18,0h3.17v-15.43h5.68v-3h-14.53v3h5.68v15.43Z"/>
</svg>