<?xml version="1.0" encoding="iso-8859-1"?>
<!-- Uploaded to: SVG Repo, www.svgrepo.com, Generator: SVG Repo Mixer Tools -->
<svg fill="#ffffff" stroke="#ffffff"  height="800px" width="800px" version="1.1" id="Layer_1" xmlns="http://www.w3.org/2000/svg" xmlns:xlink="http://www.w3.org/1999/xlink" 
	 viewBox="0 0 512 512" xml:space="preserve">
<g>
	<g>
		<path d="M437.015,74.984C388.664,26.63,324.378,0,256,0S123.336,26.63,74.985,74.984C26.633,123.336,0.004,187.622,0.004,256
			s26.628,132.664,74.98,181.016C123.336,485.37,187.622,512,256,512s132.664-26.63,181.015-74.984
			c48.352-48.353,74.98-112.639,74.98-181.016S485.367,123.336,437.015,74.984z M199.715,40.607
			c-5.437,5.653-11.029,11.966-16.616,19.009c-27.229,34.327-59.372,92.751-63.074,179.689H34.02
			C41.165,143.408,109.33,64.244,199.715,40.607z M34.02,272.696h86.006c3.702,86.941,35.843,145.363,63.074,179.692
			c5.585,7.041,11.176,13.353,16.612,19.005C109.329,447.755,41.165,368.591,34.02,272.696z M239.304,462.89
			c-9.267-7.92-20.206-18.66-31.076-32.564c-33.613-42.995-52-95.962-54.787-157.63h85.864V462.89z M239.304,239.304h-85.864
			c2.787-61.666,21.174-114.633,54.787-157.628c10.871-13.905,21.812-24.647,31.076-32.567V239.304z M477.98,239.304h-86.006
			C388.272,152.367,356.13,93.943,328.9,59.616c-5.586-7.042-11.178-13.355-16.616-19.009
			C402.67,64.244,470.835,143.408,477.98,239.304z M272.696,49.101c30.983,26.563,80.993,85.305,85.855,190.204h-85.855V49.101z
			 M272.696,462.89V272.696h85.863c-2.787,61.668-21.174,114.637-54.787,157.63C292.902,444.23,281.963,454.97,272.696,462.89z
			 M312.289,471.393c5.436-5.652,11.027-11.964,16.612-19.005c27.229-34.328,59.372-92.751,63.074-179.692h86.006
			C470.835,368.591,402.671,447.755,312.289,471.393z"/>
	</g>
</g>
</svg>