<svg width="27" height="19" viewBox="0 0 27 19" fill="none" xmlns="http://www.w3.org/2000/svg">
<path d="M25.5675 1.91154C24.8468 0.629604 24.0647 0.393807 22.4722 0.304137C20.8814 0.196202 16.8812 0.151367 13.4156 0.151367C9.9434 0.151367 5.94149 0.196202 4.35235 0.302477C2.76321 0.393807 1.97944 0.627943 1.25212 1.91154C0.509855 3.19182 0.12793 5.39702 0.12793 9.27938C0.12793 9.2827 0.12793 9.28436 0.12793 9.28436C0.12793 9.28768 0.12793 9.28934 0.12793 9.28934V9.29266C0.12793 13.1584 0.509855 15.3802 1.25212 16.6472C1.97944 17.9291 2.76155 18.1616 4.35069 18.2696C5.94149 18.3625 9.9434 18.4173 13.4156 18.4173C16.8812 18.4173 20.8814 18.3625 22.4739 18.2712C24.0663 18.1633 24.8484 17.9308 25.5691 16.6489C26.318 15.3819 26.6966 13.1601 26.6966 9.29432C26.6966 9.29432 26.6966 9.28934 26.6966 9.28602C26.6966 9.28602 26.6966 9.2827 26.6966 9.28104C26.6966 5.39702 26.318 3.19182 25.5675 1.91154ZM10.0912 14.266V4.30273L18.3939 9.28436L10.0912 14.266Z" fill="#ffffff"/>
</svg>
